<mxfile host="app.diagrams.net" modified="2022-01-16T13:27:29.271Z" agent="5.0 (Windows)" etag="JcjpNV5b_iSAvuZE7_O7" version="16.2.7" type="github">
  <diagram id="pKGNH8cvtEdThA2DlBJM" name="Page-1">
    <mxGraphModel dx="1038" dy="564" grid="1" gridSize="10" guides="1" tooltips="1" connect="1" arrows="1" fold="1" page="1" pageScale="1" pageWidth="827" pageHeight="1169" math="0" shadow="0">
      <root>
        <mxCell id="0" />
        <mxCell id="1" parent="0" />
        <mxCell id="dv86p7VtvU6cAqTzNufO-3" style="edgeStyle=orthogonalEdgeStyle;rounded=0;orthogonalLoop=1;jettySize=auto;html=1;entryX=0;entryY=0.5;entryDx=0;entryDy=0;" edge="1" parent="1" source="dv86p7VtvU6cAqTzNufO-1" target="dv86p7VtvU6cAqTzNufO-2">
          <mxGeometry relative="1" as="geometry" />
        </mxCell>
        <mxCell id="dv86p7VtvU6cAqTzNufO-12" style="edgeStyle=orthogonalEdgeStyle;rounded=0;orthogonalLoop=1;jettySize=auto;html=1;fontColor=#7F00FF;" edge="1" parent="1" source="dv86p7VtvU6cAqTzNufO-1" target="dv86p7VtvU6cAqTzNufO-7">
          <mxGeometry relative="1" as="geometry" />
        </mxCell>
        <mxCell id="dv86p7VtvU6cAqTzNufO-1" value="dsfsdfsdfdsf" style="rounded=0;whiteSpace=wrap;html=1;" vertex="1" parent="1">
          <mxGeometry x="80" y="370" width="120" height="60" as="geometry" />
        </mxCell>
        <mxCell id="dv86p7VtvU6cAqTzNufO-2" value="dsfdsfsd" style="rounded=0;whiteSpace=wrap;html=1;" vertex="1" parent="1">
          <mxGeometry x="330" y="370" width="120" height="60" as="geometry" />
        </mxCell>
        <mxCell id="dv86p7VtvU6cAqTzNufO-4" style="edgeStyle=orthogonalEdgeStyle;rounded=0;orthogonalLoop=1;jettySize=auto;html=1;exitX=0.75;exitY=0;exitDx=0;exitDy=0;entryX=0.5;entryY=1;entryDx=0;entryDy=0;" edge="1" parent="1" source="dv86p7VtvU6cAqTzNufO-2" target="dv86p7VtvU6cAqTzNufO-2">
          <mxGeometry relative="1" as="geometry" />
        </mxCell>
        <mxCell id="dv86p7VtvU6cAqTzNufO-6" style="edgeStyle=orthogonalEdgeStyle;rounded=0;orthogonalLoop=1;jettySize=auto;html=1;entryX=0.075;entryY=1.033;entryDx=0;entryDy=0;entryPerimeter=0;" edge="1" parent="1" source="dv86p7VtvU6cAqTzNufO-5" target="dv86p7VtvU6cAqTzNufO-2">
          <mxGeometry relative="1" as="geometry" />
        </mxCell>
        <mxCell id="dv86p7VtvU6cAqTzNufO-5" value="fsdfsdf" style="ellipse;whiteSpace=wrap;html=1;aspect=fixed;" vertex="1" parent="1">
          <mxGeometry x="370" y="520" width="80" height="80" as="geometry" />
        </mxCell>
        <mxCell id="dv86p7VtvU6cAqTzNufO-8" style="edgeStyle=orthogonalEdgeStyle;rounded=0;orthogonalLoop=1;jettySize=auto;html=1;" edge="1" parent="1" source="dv86p7VtvU6cAqTzNufO-7" target="dv86p7VtvU6cAqTzNufO-5">
          <mxGeometry relative="1" as="geometry" />
        </mxCell>
        <mxCell id="dv86p7VtvU6cAqTzNufO-11" value="Text" style="edgeLabel;html=1;align=center;verticalAlign=middle;resizable=0;points=[];fontColor=#7F00FF;" vertex="1" connectable="0" parent="dv86p7VtvU6cAqTzNufO-8">
          <mxGeometry x="-0.1294" y="1" relative="1" as="geometry">
            <mxPoint x="19" y="36" as="offset" />
          </mxGeometry>
        </mxCell>
        <mxCell id="dv86p7VtvU6cAqTzNufO-9" style="edgeStyle=orthogonalEdgeStyle;rounded=0;orthogonalLoop=1;jettySize=auto;html=1;entryX=0;entryY=0.5;entryDx=0;entryDy=0;" edge="1" parent="1" source="dv86p7VtvU6cAqTzNufO-7" target="dv86p7VtvU6cAqTzNufO-1">
          <mxGeometry relative="1" as="geometry">
            <Array as="points">
              <mxPoint x="190" y="590" />
              <mxPoint x="110" y="590" />
              <mxPoint x="110" y="450" />
              <mxPoint x="60" y="450" />
              <mxPoint x="60" y="400" />
            </Array>
          </mxGeometry>
        </mxCell>
        <mxCell id="dv86p7VtvU6cAqTzNufO-7" value="24324" style="shape=tape;whiteSpace=wrap;html=1;" vertex="1" parent="1">
          <mxGeometry x="130" y="460" width="120" height="100" as="geometry" />
        </mxCell>
        <mxCell id="dv86p7VtvU6cAqTzNufO-10" value="dfdsfsdsd" style="text;html=1;align=center;verticalAlign=middle;resizable=0;points=[];autosize=1;strokeColor=none;fillColor=none;fontColor=#7F00FF;" vertex="1" parent="1">
          <mxGeometry x="230" y="380" width="70" height="20" as="geometry" />
        </mxCell>
      </root>
    </mxGraphModel>
  </diagram>
</mxfile>
